PathFileType	4	(X/Y/Z)	5_coords_data.trc
DataRate	CameraRate	NumFrames	NumMarkers	Units	OrigDataRate	OrigDataStartFrame	OrigNumFrames
30.0	30.0	8	21	m	30.0	10	68
Frame#	Time	THUMB_TIP	THUMB_IP	THUMB_MCP	THUMB_CMC	INDEX_TIP	INDEX_DIP	INDEX_PIP	INDEX_MCP	MIDDLE_TIP	MIDDLE_DIP	MIDDLE_PIP	MIDDLE_MCP	RING_TIP	RING_DIP	RING_PIP	RING_MCP	PINKY_TIP	PINKY_DIP	PINKY_PIP	PINKY_MCP	WRIST
X1	Y1	Z1	X2	Y2	Z2	X3	Y3	Z3	X4	Y4	Z4	X5	Y5	Z5	X6	Y6	Z6	X7	Y7	Z7	X8	Y8	Z8	X9	Y9	Z9	X10	Y10	Z10	X11	Y11	Z11	X12	Y12	Z12	X13	Y13	Z13	X14	Y14	Z14	X15	Y15	Z15	X16	Y16	Z16	X17	Y17	Z17	X18	Y18	Z18	X19	Y19	Z19	X20	Y20	Z20	X21	Y21	Z21
8	0.2999999999999987	0.537950376726023	-0.01775937416952167	-0.1136846578024924	0.5186305934434428	-0.0177825703704797	-0.1261243296571031	0.48923128166224833	-0.010821675830327893	-0.11863791436051344	0.47299695326709024	-0.014898564183380758	-0.07728920745310336	0.5726994634966582	0.029261531405241792	-0.15228323787748158	0.5585281838350643	0.030890410606385643	-0.1411243138567269	0.5397529926956478	0.033666497488648695	-0.12463809620984068	0.5097557811706251	0.03271670411102767	-0.09442383985190794	0.4913117458758423	-0.017920083922741803	-0.10107102465308218	0.5081599984171136	-0.013264112095745517	-0.10581004487373583	0.5335744284014443	0.0004950897295039614	-0.10957842167331608	0.5201865227584798	0.028455585654860283	-0.07740510087636993	0.5085808091327916	-0.025591912430794173	-0.09452696894013404	0.5238148990208232	-0.016552720136218335	-0.09787592518724342	0.5454005181657389	-0.004139240810735245	-0.09749309863845163	0.530366003546461	0.016657594678640475	-0.06624928584630715	0.5969453433079988	0.017525009991740226	-0.09354782222801833	0.5820949118371992	0.013584033975799104	-0.08600240022703942	0.5632651617155642	0.00879870355314094	-0.07804293151972158	0.532163132398972	-0.0018570653742664422	-0.06321047346464712	0.46228308100186094	-0.023011742144276814	-0.051989820119430985
9	0.33333333333333187	0.5380916211284696	-0.017826781292182403	-0.11343183153957012	0.5188326720228039	-0.01791145582620879	-0.12596521534318297	0.4893941098244353	-0.01097882291911989	-0.11860792938514568	0.4730461945795008	-0.01499047141366372	-0.07729761174535187	0.572757140442926	0.028943499334632916	-0.15227416533685198	0.5585815381881385	0.03062081829489205	-0.14112791476459138	0.5398085890246329	0.03349052999362245	-0.1246551807027969	0.509785536534676	0.032661455051581245	-0.09446304517173892	0.49154018592707627	-0.018204807475313833	-0.1009490657148496	0.5083412129412309	-0.013361446064637184	-0.10566789411978345	0.5337280010743253	0.0004472943719076028	-0.10944138399541777	0.5201763629658325	0.02847278562521649	-0.07739340643696396	0.5087167388338487	-0.025684063014739467	-0.09436408414690091	0.5239537087459212	-0.016630441521496175	-0.09766054979296539	0.545504732885955	-0.00415633329258025	-0.09730004818551147	0.5303616094483685	0.01670098341288251	-0.06614914151488549	0.5969931157689456	0.01751225190982475	-0.0933420604681028	0.5821345839645377	0.013587572143177074	-0.08580409513608771	0.5633015004737136	0.008817685343394555	-0.07784324309972171	0.532169034348205	-0.0017852953528993964	-0.06303683218086353	0.4622830810018609	-0.023011742144277036	-0.051989820119430985
10	0.3666666666666651	0.5382352640291659	-0.01785345006738326	-0.11318930719840065	0.5190271304178862	-0.018003147820176313	-0.12579982636907866	0.4895544366585932	-0.011085662302324994	-0.11856596732419467	0.47310247808394124	-0.015049972228906139	-0.07729240065175952	0.5727413121558862	0.02859951528885374	-0.1523123137206645	0.558577092326157	0.030336629188953856	-0.14116075275758916	0.5398200753265188	0.03331682418877768	-0.12468948735269964	0.5098007128010982	0.03262779924992365	-0.09449016265493507	0.4916690119785636	-0.018279139932516397	-0.10083548058851347	0.5085010366393814	-0.013483881772401451	-0.10549256604998719	0.5338408055488588	0.00040160355249607704	-0.10930031589817146	0.5201542530889718	0.028505113886812206	-0.07737824031321383	0.5088738781447806	-0.025761195390697544	-0.09419108575628526	0.524101561077506	-0.016677942376870813	-0.09744872097023818	0.5456192169431501	-0.004146171435378543	-0.09709491012008553	0.53033890234914	0.016773902342169134	-0.0660532714222003	0.5970382376752187	0.017542812517116535	-0.09312813283415888	0.5821724464669683	0.013633877307904552	-0.08559630189587522	0.5633377832011466	0.008846678858042578	-0.07764959127671064	0.5321714303543269	-0.0017147328062550038	-0.0628848195248417	0.46228308100186094	-0.023011742144276814	-0.051989820119430985
11	0.39999999999999825	0.5383675230385426	-0.01793151558323003	-0.11289975562934547	0.5192435490157477	-0.018085401505395726	-0.12563749234739796	0.48973718956097256	-0.01119365290033758	-0.11851720071781674	0.4731481290164921	-0.015120634615266804	-0.07729497510029124	0.5727030421953268	0.028224425973014333	-0.1523783406034676	0.5585545387806883	0.03002909704187262	-0.14121756045783312	0.5398179317379925	0.03312114372092945	-0.1247436830495804	0.5098178659367189	0.03258878810086674	-0.09452202287987695	0.49184590911124626	-0.01845339765566334	-0.10073483144305542	0.508674152501693	-0.013607973440573184	-0.10535349884477452	0.5339721616650859	0.0003536420066017065	-0.10916054185400142	0.5201314655032754	0.028533514314087682	-0.07737252764282058	0.5090092750723398	-0.025838141279037607	-0.09404576599583818	0.5242122646943732	-0.016695845249645513	-0.09725318393918601	0.5457156392303861	-0.00413912731173216	-0.09691599379751341	0.5303166201744255	0.01684019400298198	-0.0659731574167264	0.5970812005347291	0.017549303929210502	-0.09293698770134151	0.5822060595001771	0.013665151708809997	-0.08541079738146896	0.5633692403947739	0.00887406443473071	-0.07747154378163527	0.5321673707819106	-0.0016275912081944455	-0.06273919799356407	0.4622830810018609	-0.023011742144277036	-0.051989820119430985
12	0.43333333333333146	0.5385254566778972	-0.01797799417101542	-0.11263552492219664	0.5194523472283807	-0.01818757617839939	-0.12544850940314206	0.48992172988632104	-0.01126445835749701	-0.11846044250057568	0.4732025423845509	-0.015178775440926495	-0.07728961677347827	0.5726937916629435	0.027867482719714953	-0.1524126387124083	0.5585581603760525	0.029733529181382834	-0.14124564275449886	0.5398390041874657	0.0329394503578434	-0.1247736940538255	0.5098465193912343	0.032548717757385326	-0.09454234810656792	0.49205230292853613	-0.01866277317029974	-0.10060913895970795	0.5088442478436377	-0.013713985969939335	-0.1052502693407404	0.5341100561669133	0.00031454276624853783	-0.10902503572681763	0.5201188946015227	0.028555220940098103	-0.07735708007236788	0.5091467240664473	-0.02584856965731075	-0.09383649629945806	0.5243400596614988	-0.016699069256910226	-0.09706901790328634	0.5458360811095218	-0.00412975622907763	-0.09673225253318708	0.5302987054892042	0.016899013345780367	-0.06589231668693908	0.5971353903965382	0.017555998611601842	-0.09272057493757513	0.5822497873898715	0.013690131384432536	-0.08520566351362525	0.5634028832232865	0.008928449588738951	-0.0772726559621276	0.5321644119387976	-0.00154888658986585	-0.0626006830406471	0.46228308100186083	-0.023011742144277036	-0.051989820119430985
13	0.4666666666666647	0.5386684832281292	-0.01804330446046598	-0.11242073206010465	0.5196473942607187	-0.018266455677798055	-0.12531058768489967	0.49008377544744297	-0.011388304342271782	-0.11841831107488714	0.4732627597386596	-0.01524298193501683	-0.0772833515978091	0.5726821876976922	0.027515887766148217	-0.152449316623321	0.5585606042975895	0.02944549009080244	-0.14127535057976098	0.5398598148054671	0.032759475729350895	-0.12480392670206227	0.5098741165037803	0.03250820152606437	-0.09456436895670185	0.49227965462003986	-0.01891964929350687	-0.10049714133116892	0.509015316322172	-0.013801561228069081	-0.10515791400811941	0.5342548111447843	0.00028090215967147003	-0.10890780414414689	0.5201047774309976	0.02857182773032041	-0.07735549840819944	0.5092936330185245	-0.02582641777452488	-0.09361684046874805	0.5244826628160728	-0.01669690845774796	-0.09692522881416178	0.5459625323999326	-0.00410026078273007	-0.09657932563139213	0.5302886497750872	0.016942020062600927	-0.06581778057447418	0.5971931745449306	0.017547083557354237	-0.09251908791362316	0.5822958137573347	0.013700489238846147	-0.08501759781411479	0.5634414805576291	0.008949249937547865	-0.07709599042064487	0.5321618740223873	-0.0014802833530691561	-0.06247769704076039	0.46228308100186083	-0.023011742144276814	-0.051989820119430985
14	0.4999999999999978	0.5387799685421437	-0.018039502716712175	-0.11223667732155013	0.5197895879178417	-0.018340670310656337	-0.12517015101675263	0.49019798552940674	-0.011469560948837332	-0.11839188248985796	0.4732970100878078	-0.015307265739086695	-0.07728812291648844	0.5726408674588219	0.027206805531209466	-0.15249532569406657	0.558538574458967	0.02919610226986058	-0.14130747377192196	0.5398630970871037	0.03261402805630864	-0.1248285732851978	0.5098949479964948	0.032485363125069444	-0.09457085394915882	0.49247633457715906	-0.019150672899752808	-0.10037912204008423	0.5091644672355506	-0.013892693333156236	-0.10505457701828444	0.5343658977254008	0.00026003135396002186	-0.10879594510976398	0.5201024077078209	0.02858797243274025	-0.07732804832978261	0.5094193987628484	-0.025834282911567197	-0.09345990059588517	0.5245928854044193	-0.016685323044198785	-0.09678583452237241	0.5460704345641361	-0.004085123605123586	-0.09642550802115588	0.5302849794800094	0.01697694172818598	-0.06573463566987828	0.5972519734248636	0.017532860595761535	-0.09231681381381458	0.5823469264468955	0.01370582590147007	-0.08482058942861548	0.5634865416336268	0.008962901090856512	-0.0769084109715604	0.532179652316792	-0.0014801916453139885	-0.062358361266930055	0.46228308100186083	-0.023011742144276814	-0.051989820119430985
15	0.533333333333331	0.5388875016599997	-0.018028076766005485	-0.112088057748251	0.5199246386693894	-0.018337182826873244	-0.12506165711937683	0.49030276829940417	-0.011521945882861928	-0.11835961704334226	0.4733378239228647	-0.015340567267852823	-0.0772804399213621	0.572612130631512	0.02695969665496567	-0.15250631575073648	0.5585292454242239	0.02900801540965292	-0.14130467593696167	0.5398696088763641	0.03250837130304096	-0.1248251339068748	0.509913026186742	0.032481474180881986	-0.09455570173339888	0.4926018884918447	-0.019265515445254344	-0.10023229292652046	0.5092473287840642	-0.013887040548946628	-0.10492284995825414	0.534452025813265	0.0002531281714595046	-0.10868960270095414	0.5200891162889075	0.028616945595210885	-0.07729933968601245	0.5095388072830717	-0.02584549851483131	-0.09334005363619653	0.5246904502291145	-0.016663796439550627	-0.09667532919249129	0.5461629498397228	-0.004055664659353697	-0.09629224632206856	0.5302804959344782	0.017011788153441287	-0.06565516219305202	0.5972885667048953	0.01753529305360413	-0.09215460996842383	0.5823779893250604	0.013726228133771778	-0.08466023163286723	0.5635149417495107	0.008986937715033116	-0.07675222420435539	0.5321844072616017	-0.001439584201825106	-0.062241238696154236	0.4622830810018609	-0.023011742144277036	-0.051989820119430985
